<?xml version="1.0" encoding="UTF-8" standalone="no"?>
<svg
   width="16"
   height="16.000002"
   viewBox="0 0 16 16.000002"
   version="1.1"
   id="svg4"
   sodipodi:docname="pdf_icon.svg"
   inkscape:version="1.2.2 (732a01da63, 2022-12-09)"
   xmlns:inkscape="http://www.inkscape.org/namespaces/inkscape"
   xmlns:sodipodi="http://sodipodi.sourceforge.net/DTD/sodipodi-0.dtd"
   xmlns="http://www.w3.org/2000/svg"
   xmlns:svg="http://www.w3.org/2000/svg">
  <defs
     id="defs8" />
  <sodipodi:namedview
     id="namedview6"
     pagecolor="#ffffff"
     bordercolor="#000000"
     borderopacity="0.25"
     inkscape:showpageshadow="2"
     inkscape:pageopacity="0.0"
     inkscape:pagecheckerboard="0"
     inkscape:deskcolor="#d1d1d1"
     showgrid="false"
     inkscape:zoom="14.75"
     inkscape:cx="27.457627"
     inkscape:cy="6.9152542"
     inkscape:window-width="1920"
     inkscape:window-height="1137"
     inkscape:window-x="-8"
     inkscape:window-y="32"
     inkscape:window-maximized="1"
     inkscape:current-layer="svg4" />
  <path
     d="M 2.0000001,3.0000005 V 6.000001 H 0 V 16.000002 H 16 V 6.000001 H 14 V 3.0000005 H 13.708001 L 12.353994,1.6460003 11,0.29200002 V 0 H 2.0000001 v 3.0000005 m 7.9999995,-0.5 V 4.0000006 H 13.000001 V 6.000001 H 3.0000002 V 1.0000002 h 6.9999994 v 1.5000003 m 1.6499944,-0.142 0.642006,0.642 H 11 v -0.642 c 0,-0.3529996 0.0019,-0.6409996 0.0038,-0.6409996 0.0029,0 0.292997,0.288 0.645997,0.6409996 M 4.0000003,8.5000014 v 0.5000001 h 1 v 1.9999995 h -1 v 1.000001 H 2.0000001 v 2 h -1 V 8.000001 h 3.0000002 v 0.5000004 m 4.9999993,0 v 0.5000001 h 1 v 4.0000005 h -1 v 1 H 6.0000004 V 8.000001 h 2.9999992 v 0.5000004 m 6.0000004,0 v 0.5000001 h -3 v 1.9999995 h 2 v 1.000001 h -2 v 2 H 11 V 8.000001 h 4 V 8.5000014 M 2.0000001,10.000001 v 1 H 4.0000003 V 9.0000015 H 2.0000001 v 0.9999995 m 4.9999993,1 v 2.000001 H 8.9999996 V 9.0000015 H 6.9999994 v 1.9999995"
     fill="#006d97"
     id="path782"
     style="stroke-width:0.999998" />
</svg>
